<?xml version="1.0"?>
<svg xmlns="http://www.w3.org/2000/svg" xmlns:xlink="http://www.w3.org/1999/xlink" version="1.1" id="Capa_1" x="0px" y="0px" viewBox="0 0 512 512" style="enable-background:new 0 0 512 512;" xml:space="preserve" width="512px" height="512px" class=""><g transform="matrix(-1 0 0 1 512 0)"><polygon style="fill:#57555C;" points="445.996,10 445.996,270 405.996,270 405.996,250 405.996,28.33 405.996,10 " data-original="#57555C" class=""/><g>
	<path style="fill:#FD6244;" d="M265.996,296c-10.205,0-193.325,0-200,0l80-80h40L265.996,296z" data-original="#FD6244"/>
	<path style="fill:#FD6244;" d="M225.996,462v20c0,11.05-8.95,20-20,20h-80c-11.05,0-20-8.95-20-20v-20   C110.201,462,220.196,462,225.996,462z" data-original="#FD6244"/>
</g><path style="fill:#FED42D;" d="M65.996,296l40,166c4.205,0,114.199,0,120,0l40-166C255.791,296,72.671,296,65.996,296z" data-original="#FED42D" class=""/><path style="fill:#E3E3E3;" d="M165.996,28.33c-11.05,0-20,8.96-20,20c0,7.149,0,160.878,0,167.67h40v-80.16  c63.07,11.33,116.08,54.37,140,114.16h80V28.33H165.996z M365.996,210h-14.78c-33.85-61.35-94.98-104.34-165.22-114.69V68h180V210z" data-original="#E3E3E3"/><path d="M125.996,386c5.52,0,10-4.48,10-10s-4.48-10-10-10c-5.52,0-10,4.48-10,10S120.476,386,125.996,386z" data-original="#000000" class="active-path" style="fill:#000000"/><path d="M405.996,280h40c5.523,0,10-4.477,10-10V10c0-5.523-4.477-10-10-10h-40c-5.523,0-10,4.477-10,10v8.33h-230  c-16.542,0-30,13.458-30,30c0,6.816,0,155.762,0,163.527l-77.071,77.071c-0.006,0.006-0.01,0.012-0.016,0.018  c-2.312,2.322-3.433,5.769-2.665,9.229c0.012,0.055,0.017,0.112,0.03,0.167l39.722,164.845V482c0,16.542,13.458,30,30,30h80  c16.542,0,30-13.458,30-30v-18.812l39.722-164.845c0.013-0.055,0.018-0.111,0.03-0.167c0.711-3.201-0.158-6.614-2.546-9.099  c-0.041-0.042-0.077-0.089-0.118-0.131c-0.006-0.006-0.01-0.012-0.016-0.018l-77.071-77.071v-63.644  c54.867,13.695,99.48,52.422,120.715,105.501c1.519,3.796,5.196,6.286,9.285,6.286h70v10C395.996,275.523,400.473,280,405.996,280z   M415.996,20h20v240h-20V20z M90.139,286l60-60h31.716l60,60H90.139z M175.996,206h-20v-64.469l20,2.858V206z M98.946,306  l8.309,37.361c1.037,4.66,5.168,7.831,9.752,7.831c0.719,0,1.449-0.078,2.18-0.24c5.391-1.199,8.79-6.542,7.591-11.933L119.435,306  h92.895l-35.19,146h-22.583l-12.933-46.111c-1.492-5.318-7.01-8.421-12.329-6.928c-5.317,1.491-8.419,7.011-6.928,12.329  L133.786,452h-19.913L78.692,306H98.946z M215.996,482c0,5.514-4.486,10-10,10h-80c-5.514,0-10-4.486-10-10v-10  c9.837,0,88.333,0,100,0V482z M218.12,452h-20.407l35.189-146H253.3L218.12,452z M332.637,240  c-12.492-28.31-31.629-53.446-55.645-73.006c-48.196-39.254-95.339-42-120.996-45.666c0-15.07,0-57.735,0-72.997  c0-5.514,4.486-10,10-10h230V240H332.637z" data-original="#000000" class="active-path" style="fill:#000000"/><path d="M365.996,58h-180c-5.523,0-10,4.477-10,10v27.31c0,4.96,3.635,9.17,8.542,9.893c66.41,9.786,125.446,50.768,157.922,109.628  c1.76,3.189,5.114,5.169,8.756,5.169h14.78c5.523,0,10-4.477,10-10V68C375.996,62.477,371.519,58,365.996,58z M355.996,198.247  c-34.71-58.096-93.562-99.064-160-111.408V78h160V198.247z" data-original="#000000" class="active-path" style="fill:#000000"/></g> </svg>
