<?xml version="1.0" encoding="iso-8859-1"?>
<!-- Generator: Adobe Illustrator 19.0.0, SVG Export Plug-In . SVG Version: 6.00 Build 0)  -->
<svg version="1.1" id="Layer_1" xmlns="http://www.w3.org/2000/svg" xmlns:xlink="http://www.w3.org/1999/xlink" x="0px" y="0px"
	 viewBox="0 0 479.516 479.516" style="enable-background:new 0 0 479.516 479.516;" xml:space="preserve">
<polygon style="fill:#F9EBB2;" points="437.996,479.516 124.227,479.516 202.996,76.477 359.227,76.477 "/>
<polygon style="fill:#FFF3C2;" points="393.35,251.085 359.227,76.477 202.996,76.477 168.873,251.085 "/>
<polygon style="fill:#797C7F;" points="80.904,479.516 41.519,479.516 41.519,55.847 97.359,0 197.089,0 197.089,39.385 
	113.68,39.385 80.904,72.16 "/>
<polygon style="fill:#585B5E;" points="113.68,39.385 97.359,39.385 41.519,95.232 41.519,479.516 80.904,479.516 80.904,111.545 
	80.904,72.16 "/>
<path style="fill:#797C7F;" d="M385.481,64.339c0,13.044-10.579,23.631-23.631,23.631H200.373
	c-13.052,0-23.631-10.587-23.631-23.631V23.631C176.742,10.587,187.321,0,200.373,0H361.85c13.052,0,23.631,10.587,23.631,23.631
	V64.339z"/>
<path style="fill:#EFBA35;" d="M176.742,60.723v3.616c0,13.044,10.579,23.631,23.631,23.631H361.85
	c13.052,0,23.631-10.587,23.631-23.631v-3.616H176.742z"/>
<path style="fill:#EDCE37;" d="M200.373,87.969H361.85c8.791,0,16.368-4.86,20.441-11.981H179.933
	C183.997,83.109,191.575,87.969,200.373,87.969z"/>
<g>
</g>
<g>
</g>
<g>
</g>
<g>
</g>
<g>
</g>
<g>
</g>
<g>
</g>
<g>
</g>
<g>
</g>
<g>
</g>
<g>
</g>
<g>
</g>
<g>
</g>
<g>
</g>
<g>
</g>
</svg>
