<svg xmlns="http://www.w3.org/2000/svg" height="595.238pt" version="1.1" viewBox="0 0 595.238 595.238" width="595.238pt">
<g id="surface1">
<path d="M 138.832031 287.582031 C 210.03125 287.582031 267.75 229.863281 267.75 158.667969 C 267.75 87.46875 210.03125 29.75 138.832031 29.75 C 67.636719 29.75 9.917969 87.46875 9.917969 158.667969 C 9.917969 229.863281 67.636719 287.582031 138.832031 287.582031 Z M 138.832031 228.082031 C 177.152344 228.035156 208.199219 196.984375 208.25 158.667969 C 208.25 197.003906 177.171875 228.082031 138.832031 228.082031 C 100.496094 228.082031 69.417969 197.003906 69.417969 158.667969 C 69.464844 196.984375 100.515625 228.035156 138.832031 228.082031 Z M 138.832031 228.082031 " style=" stroke:none;fill-rule:nonzero;fill:rgb(20%,54.117647%,95.294118%);fill-opacity:1;" />
<path d="M 456.167969 327.25 C 384.96875 327.25 327.25 384.96875 327.25 456.167969 C 327.25 527.363281 384.96875 585.082031 456.167969 585.082031 C 527.363281 585.082031 585.082031 527.363281 585.082031 456.167969 C 585.082031 384.96875 527.363281 327.25 456.167969 327.25 Z M 456.167969 456.167969 C 417.847656 456.214844 386.800781 487.265625 386.75 525.582031 C 386.75 487.246094 417.828125 456.167969 456.167969 456.167969 C 494.503906 456.167969 525.582031 487.246094 525.582031 525.582031 C 525.535156 487.265625 494.484375 456.214844 456.167969 456.167969 Z M 456.167969 456.167969 " style=" stroke:none;fill-rule:nonzero;fill:rgb(87.843137%,20%,32.156863%);fill-opacity:1;" />
<path d="M 565.25 9.917969 L 327.25 9.917969 C 316.296875 9.917969 307.417969 18.796875 307.417969 29.75 L 307.417969 138.832031 L 287.582031 188.417969 L 337.167969 168.582031 L 565.25 168.582031 C 576.203125 168.582031 585.082031 159.703125 585.082031 148.75 L 585.082031 29.75 C 585.082031 18.796875 576.203125 9.917969 565.25 9.917969 Z M 565.25 9.917969 " style=" stroke:none;fill-rule:nonzero;fill:rgb(100%,93.72549%,67.843137%);fill-opacity:1;" />
<path d="M 9.917969 466.082031 C 9.917969 477.039062 18.796875 485.917969 29.75 485.917969 L 257.832031 485.917969 L 307.417969 505.75 L 287.582031 456.167969 L 287.582031 347.082031 C 287.582031 336.128906 278.703125 327.25 267.75 327.25 L 29.75 327.25 C 18.796875 327.25 9.917969 336.128906 9.917969 347.082031 Z M 9.917969 466.082031 " style=" stroke:none;fill-rule:nonzero;fill:rgb(100%,93.72549%,67.843137%);fill-opacity:1;" />
<path d="M 138.832031 297.5 C 215.507812 297.5 277.667969 235.34375 277.667969 158.667969 C 277.667969 81.992188 215.507812 19.832031 138.832031 19.832031 C 62.15625 19.832031 0 81.992188 0 158.667969 C 0.0820312 235.308594 62.191406 297.417969 138.832031 297.5 Z M 138.832031 39.667969 C 204.554688 39.667969 257.832031 92.945312 257.832031 158.667969 C 257.832031 224.390625 204.554688 277.667969 138.832031 277.667969 C 73.109375 277.667969 19.832031 224.386719 19.832031 158.667969 C 19.902344 92.972656 73.140625 39.738281 138.832031 39.667969 Z M 138.832031 39.667969 " style=" stroke:none;fill-rule:nonzero;fill:rgb(13.72549%,12.156863%,12.54902%);fill-opacity:1;" />
<path d="M 138.832031 238 C 182.628906 237.949219 218.117188 202.460938 218.167969 158.667969 L 198.332031 158.667969 C 198.332031 191.527344 171.695312 218.167969 138.832031 218.167969 C 105.972656 218.167969 79.332031 191.527344 79.332031 158.667969 L 59.5 158.667969 C 59.550781 202.460938 95.039062 237.949219 138.832031 238 Z M 138.832031 238 " style=" stroke:none;fill-rule:nonzero;fill:rgb(13.72549%,12.156863%,12.54902%);fill-opacity:1;" />
<path d="M 168.582031 99.167969 L 208.25 99.167969 L 208.25 119 L 168.582031 119 Z M 168.582031 99.167969 " style=" stroke:none;fill-rule:nonzero;fill:rgb(13.72549%,12.156863%,12.54902%);fill-opacity:1;" />
<path d="M 69.417969 99.167969 L 109.082031 99.167969 L 109.082031 119 L 69.417969 119 Z M 69.417969 99.167969 " style=" stroke:none;fill-rule:nonzero;fill:rgb(13.72549%,12.156863%,12.54902%);fill-opacity:1;" />
<path d="M 456.167969 317.332031 C 379.492188 317.332031 317.332031 379.492188 317.332031 456.167969 C 317.332031 532.84375 379.492188 595 456.167969 595 C 532.84375 595 595 532.84375 595 456.167969 C 594.917969 379.523438 532.808594 317.414062 456.167969 317.332031 Z M 456.167969 575.167969 C 390.445312 575.167969 337.167969 521.890625 337.167969 456.167969 C 337.167969 390.445312 390.445312 337.167969 456.167969 337.167969 C 521.890625 337.167969 575.167969 390.445312 575.167969 456.167969 C 575.097656 521.859375 521.859375 575.097656 456.167969 575.167969 Z M 456.167969 575.167969 " style=" stroke:none;fill-rule:nonzero;fill:rgb(13.72549%,12.156863%,12.54902%);fill-opacity:1;" />
<path d="M 456.167969 446.25 C 412.371094 446.300781 376.882812 481.789062 376.832031 525.582031 L 396.667969 525.582031 C 396.667969 492.722656 423.304688 466.082031 456.167969 466.082031 C 489.027344 466.082031 515.667969 492.722656 515.667969 525.582031 L 535.5 525.582031 C 535.449219 481.789062 499.960938 446.300781 456.167969 446.25 Z M 456.167969 446.25 " style=" stroke:none;fill-rule:nonzero;fill:rgb(13.72549%,12.156863%,12.54902%);fill-opacity:1;" />
<path d="M 485.917969 396.667969 L 525.582031 396.667969 L 525.582031 416.5 L 485.917969 416.5 Z M 485.917969 396.667969 " style=" stroke:none;fill-rule:nonzero;fill:rgb(13.72549%,12.156863%,12.54902%);fill-opacity:1;" />
<path d="M 386.75 396.667969 L 426.417969 396.667969 L 426.417969 416.5 L 386.75 416.5 Z M 386.75 396.667969 " style=" stroke:none;fill-rule:nonzero;fill:rgb(13.72549%,12.156863%,12.54902%);fill-opacity:1;" />
<path d="M 565.25 0 L 327.25 0 C 310.820312 0 297.5 13.320312 297.5 29.75 L 297.5 136.929688 L 278.371094 184.738281 C 276.335938 189.820312 278.808594 195.59375 283.890625 197.628906 C 286.257812 198.574219 288.898438 198.574219 291.261719 197.628906 L 339.070312 178.5 L 565.25 178.5 C 581.679688 178.5 595 165.179688 595 148.75 L 595 29.75 C 595 13.320312 581.679688 0 565.25 0 Z M 575.167969 148.75 C 575.167969 154.226562 570.726562 158.667969 565.25 158.667969 L 337.167969 158.667969 C 335.90625 158.667969 334.65625 158.90625 333.488281 159.371094 L 305.433594 170.566406 L 316.679688 142.464844 C 317.121094 141.304688 317.34375 140.074219 317.335938 138.832031 L 317.335938 29.75 C 317.335938 24.273438 321.773438 19.832031 327.25 19.832031 L 565.25 19.832031 C 570.726562 19.832031 575.167969 24.273438 575.167969 29.75 Z M 575.167969 148.75 " style=" stroke:none;fill-rule:nonzero;fill:rgb(13.72549%,12.156863%,12.54902%);fill-opacity:1;" />
<path d="M 347.082031 49.582031 L 436.332031 49.582031 L 436.332031 69.417969 L 347.082031 69.417969 Z M 347.082031 49.582031 " style=" stroke:none;fill-rule:nonzero;fill:rgb(13.72549%,12.156863%,12.54902%);fill-opacity:1;" />
<path d="M 446.25 49.582031 L 535.5 49.582031 L 535.5 69.417969 L 446.25 69.417969 Z M 446.25 49.582031 " style=" stroke:none;fill-rule:nonzero;fill:rgb(13.72549%,12.156863%,12.54902%);fill-opacity:1;" />
<path d="M 347.082031 79.332031 L 456.167969 79.332031 L 456.167969 99.167969 L 347.082031 99.167969 Z M 347.082031 79.332031 " style=" stroke:none;fill-rule:nonzero;fill:rgb(13.72549%,12.156863%,12.54902%);fill-opacity:1;" />
<path d="M 466.082031 79.332031 L 555.332031 79.332031 L 555.332031 99.167969 L 466.082031 99.167969 Z M 466.082031 79.332031 " style=" stroke:none;fill-rule:nonzero;fill:rgb(13.72549%,12.156863%,12.54902%);fill-opacity:1;" />
<path d="M 347.082031 109.082031 L 426.417969 109.082031 L 426.417969 128.917969 L 347.082031 128.917969 Z M 347.082031 109.082031 " style=" stroke:none;fill-rule:nonzero;fill:rgb(13.72549%,12.156863%,12.54902%);fill-opacity:1;" />
<path d="M 436.332031 109.082031 L 555.332031 109.082031 L 555.332031 128.917969 L 436.332031 128.917969 Z M 436.332031 109.082031 " style=" stroke:none;fill-rule:nonzero;fill:rgb(13.72549%,12.156863%,12.54902%);fill-opacity:1;" />
<path d="M 297.5 454.261719 L 297.5 347.082031 C 297.5 330.652344 284.179688 317.332031 267.75 317.332031 L 29.75 317.332031 C 13.320312 317.332031 0 330.652344 0 347.082031 L 0 466.082031 C 0 482.515625 13.320312 495.832031 29.75 495.832031 L 255.929688 495.832031 L 303.738281 514.964844 C 308.824219 517 314.59375 514.527344 316.628906 509.441406 C 317.574219 507.074219 317.574219 504.4375 316.628906 502.070312 Z M 261.511719 476.703125 C 260.34375 476.238281 259.09375 476 257.832031 476 L 29.75 476 C 24.273438 476 19.832031 471.558594 19.832031 466.082031 L 19.832031 347.082031 C 19.832031 341.605469 24.273438 337.167969 29.75 337.167969 L 267.75 337.167969 C 273.226562 337.167969 277.667969 341.605469 277.667969 347.082031 L 277.667969 456.167969 C 277.664062 457.425781 277.90625 458.675781 278.371094 459.847656 L 289.617188 487.949219 Z M 261.511719 476.703125 " style=" stroke:none;fill-rule:nonzero;fill:rgb(13.72549%,12.156863%,12.54902%);fill-opacity:1;" />
<path d="M 158.667969 366.917969 L 247.917969 366.917969 L 247.917969 386.75 L 158.667969 386.75 Z M 158.667969 366.917969 " style=" stroke:none;fill-rule:nonzero;fill:rgb(13.72549%,12.156863%,12.54902%);fill-opacity:1;" />
<path d="M 59.5 366.917969 L 148.75 366.917969 L 148.75 386.75 L 59.5 386.75 Z M 59.5 366.917969 " style=" stroke:none;fill-rule:nonzero;fill:rgb(13.72549%,12.156863%,12.54902%);fill-opacity:1;" />
<path d="M 138.832031 396.667969 L 247.917969 396.667969 L 247.917969 416.5 L 138.832031 416.5 Z M 138.832031 396.667969 " style=" stroke:none;fill-rule:nonzero;fill:rgb(13.72549%,12.156863%,12.54902%);fill-opacity:1;" />
<path d="M 39.667969 396.667969 L 128.917969 396.667969 L 128.917969 416.5 L 39.667969 416.5 Z M 39.667969 396.667969 " style=" stroke:none;fill-rule:nonzero;fill:rgb(13.72549%,12.156863%,12.54902%);fill-opacity:1;" />
<path d="M 168.582031 426.417969 L 247.917969 426.417969 L 247.917969 446.25 L 168.582031 446.25 Z M 168.582031 426.417969 " style=" stroke:none;fill-rule:nonzero;fill:rgb(13.72549%,12.156863%,12.54902%);fill-opacity:1;" />
<path d="M 39.667969 426.417969 L 158.667969 426.417969 L 158.667969 446.25 L 39.667969 446.25 Z M 39.667969 426.417969 " style=" stroke:none;fill-rule:nonzero;fill:rgb(13.72549%,12.156863%,12.54902%);fill-opacity:1;" />
</g>
</svg>