<?xml version="1.0" encoding="iso-8859-1"?>
<!-- Generator: Adobe Illustrator 16.0.0, SVG Export Plug-In . SVG Version: 6.00 Build 0)  -->
<!DOCTYPE svg PUBLIC "-//W3C//DTD SVG 1.1//EN" "http://www.w3.org/Graphics/SVG/1.1/DTD/svg11.dtd">
<svg version="1.1" id="Capa_1" xmlns="http://www.w3.org/2000/svg" xmlns:xlink="http://www.w3.org/1999/xlink" x="0px" y="0px"
	 width="45.883px" height="45.883px" viewBox="0 0 45.883 45.883" style="enable-background:new 0 0 45.883 45.883;"
	 xml:space="preserve">
<g>
	<path d="M40.1,14.621l-8.75-5.855l-0.005-3.029c0-1.938-1.599-3.505-3.536-3.505H11.645C11.645,0.999,10.646,0,9.413,0H6.479
		C5.248,0,4.249,0.999,4.249,2.231v26.671c0,0.599,0.241,1.173,0.669,1.593c0.428,0.419,1.006,0.649,1.605,0.638l2.933-0.057
		c1.215-0.023,2.188-1.016,2.188-2.23V5.766l16.13-0.029v3.136c0,0.008-0.027,0.016-0.039,0.023l-8.414,5.727
		c-1.031,0.701-1.616,1.91-1.528,3.154l1.621,22.694c0.104,1.451,1.069,2.67,2.459,3.104l6.895,2.149
		c0.34,0.104,0.69,0.158,1.043,0.158c0.365,0,0.727-0.058,1.071-0.167l6.685-2.14c1.377-0.439,2.334-1.655,2.437-3.098l1.622-22.703
		C41.715,16.532,41.13,15.323,40.1,14.621z M28.348,17.788v5.292H21.72l-0.384-5.292H28.348z M31.026,17.788h7.039l-0.373,5.292
		h-6.666V17.788L31.026,17.788z M21.915,25.758h6.436v16.128l-5.405-1.669L21.915,25.758z M31.026,41.934V25.758h6.478
		l-1.024,14.434L31.026,41.934z"/>
</g>
<g>
</g>
<g>
</g>
<g>
</g>
<g>
</g>
<g>
</g>
<g>
</g>
<g>
</g>
<g>
</g>
<g>
</g>
<g>
</g>
<g>
</g>
<g>
</g>
<g>
</g>
<g>
</g>
<g>
</g>
</svg>
